<?xml version="1.0" encoding="UTF-8"?>
<!-- Generator: Adobe Illustrator 25.3.1, SVG Export Plug-In . SVG Version: 6.00 Build 0)  -->
<svg version="1.1" id="Слой_1" xmlns="http://www.w3.org/2000/svg" xmlns:xlink="http://www.w3.org/1999/xlink" x="0px" y="0px" viewBox="0 0 16 16" style="enable-background:new 0 0 16 16;" xml:space="preserve">
<path d="M11.8,0H4.2C1.9,0,0,1.9,0,4.2v7.5C0,14.1,1.9,16,4.2,16h7.5c2.4,0,4.2-1.9,4.2-4.2V4.2C16,1.9,14.1,0,11.8,0z M4.5,4.5v0.8  h6.7c1.5,0,2.7,1.2,2.7,2.7v0.9c-0.7-0.8-1.7-1.3-2.7-1.3H4.9c-1.5,0-2.7-1.2-2.7-2.7s1.2-2.7,2.7-2.7h6.2c1.5,0,2.7,1.2,2.7,2.7  v0.9c-0.7-0.8-1.7-1.3-2.7-1.3H4.5L4.5,4.5z M11.1,13.9H4.9c-1.5,0-2.7-1.2-2.7-2.7v-0.9c0.7,0.8,1.7,1.3,2.7,1.3h6.6v-0.8H4.9  c-1.5,0-2.7-1.2-2.7-2.7v-1c0.7,0.8,1.7,1.3,2.7,1.3h6.2c1.5,0,2.7,1.2,2.7,2.7S12.6,13.9,11.1,13.9z"/>
</svg>