<svg width="32" height="33" viewBox="0 0 32 33" fill="none" xmlns="http://www.w3.org/2000/svg">
<g clip-path="url(#clip0)">
<path d="M19 27.355H27C27.9885 27.355 28.8285 27.132 29.526 26.7435L19 20.4645V27.355Z" fill="#2E3192"/>
<path d="M31.83 23.46C31.944 22.9515 32.002 22.413 32.002 21.8545V19.3545H24.947L31.828 23.46" fill="#2E3192"/>
<path d="M0.174998 9.23449C0.0565001 9.76645 -0.00219722 10.31 -1.65592e-06 10.855V13.355H7.082L0.174998 9.23449Z" fill="#2E3192"/>
<path d="M13 5.35498H4.99997C4.01847 5.35498 3.18397 5.57498 2.48947 5.95798L13 12.228V5.35498Z" fill="#2E3192"/>
<path d="M2.52151 26.768C3.20951 27.14 4.03301 27.355 5.00001 27.355H13V20.517L2.52151 26.768Z" fill="#2E3192"/>
<path d="M-3.05176e-05 19.355V21.855C-3.05176e-05 22.4305 0.0609695 22.985 0.181469 23.5065L7.14097 19.355H-3.05176e-05Z" fill="#2E3192"/>
<path d="M29.5575 5.98248C28.8545 5.58348 28.003 5.35498 27 5.35498H19V12.2805L29.5575 5.98248Z" fill="#2E3192"/>
<path d="M32 13.355V10.855C32 10.308 31.9435 9.78049 31.834 9.28149L25.006 13.355H32Z" fill="#2E3192"/>
<path d="M25.006 13.355L31.834 9.28148C31.521 7.84948 30.759 6.66398 29.5575 5.98248L19 12.2805V5.35498H18V14.355H32V13.355H25.006Z" fill="#E6E7E8"/>
<path d="M-3.05176e-05 18.355V19.355H7.14097L0.181469 23.5065C0.51197 24.934 1.29697 26.106 2.52147 26.768L13 20.517V27.355H14V18.355H-3.05176e-05Z" fill="#E6E7E8"/>
<path d="M32 18.355H18V27.355H19V20.4645L29.526 26.744C30.7365 26.07 31.508 24.891 31.828 23.461L24.947 19.355H32V18.355Z" fill="#E6E7E8"/>
<path d="M13 5.35498V12.228L2.48947 5.95798C1.27447 6.62798 0.49797 7.80498 0.174469 9.23448L7.08197 13.355H-3.05176e-05V14.355H14V5.35498H13Z" fill="#E6E7E8"/>
<path d="M18 14.355V5.35498H14V14.355H-3.05176e-05V18.355H14V27.355H18V18.355H32V14.355H18Z" fill="#BE1E2D"/>
<path d="M10.969 13.355L0.944006 7.37048C0.728506 7.69048 0.555506 8.04248 0.412506 8.41748L8.68601 13.355H10.9675" fill="#BE1E2D"/>
<path d="M31.545 24.4L23.1385 19.355H20.8105L30.967 25.4645C31.2025 25.1354 31.3966 24.7785 31.545 24.402" fill="#BE1E2D"/>
<path d="M30.3595 6.55051L18.9845 13.355L21.294 13.3565L31.1095 7.48001C30.8905 7.08151 30.6595 6.82451 30.3595 6.55051Z" fill="#BE1E2D"/>
<path d="M0.906525 25.2925C1.13144 25.635 1.40211 25.9452 1.71102 26.2145L13.0315 19.355H10.75L0.906525 25.2925Z" fill="#BE1E2D"/>
</g>
<defs>
<clipPath id="clip0">
<rect width="32" height="32" fill="white" transform="translate(-3.05176e-05 0.35498)"/>
</clipPath>
</defs>
</svg>