<?xml version="1.0" standalone="no"?>
<!DOCTYPE svg PUBLIC "-//W3C//DTD SVG 20010904//EN"
 "http://www.w3.org/TR/2001/REC-SVG-20010904/DTD/svg10.dtd">
<svg version="1.0" xmlns="http://www.w3.org/2000/svg"
 width="117.000000pt" height="134.000000pt" viewBox="0 0 117.000000 134.000000"
 preserveAspectRatio="xMidYMid meet">

<g transform="translate(0.000000,134.000000) scale(0.100000,-0.100000)"
fill="#000000" stroke="none">
<path d="M0 670 l0 -670 585 0 585 0 0 670 0 670 -585 0 -585 0 0 -670z m778
549 c108 -19 183 -74 234 -172 18 -33 22 -59 23 -127 0 -73 -4 -93 -28 -142
-26 -53 -69 -96 -111 -112 -18 -6 -17 -8 10 -25 81 -50 104 -115 104 -300 0
-110 2 -121 25 -156 15 -20 25 -39 23 -40 -3 -3 -198 -8 -234 -6 -12 0 -25 9
-29 19 -4 9 -11 83 -15 163 -13 232 -14 233 -242 237 l-168 4 0 -210 0 -211
-22 -3 c-13 -2 -65 -2 -115 0 l-93 3 0 538 c0 296 3 541 7 544 11 12 562 8
631 -4z"/>
<path d="M375 1028 c-3 -8 -4 -74 -3 -147 l3 -133 170 2 c191 1 216 8 248 70
22 43 17 122 -11 160 -34 46 -66 53 -239 58 -135 4 -164 2 -168 -10z"/>
</g>
</svg>
