<svg width="250" height="51" viewBox="0 0 250 51" fill="none" xmlns="http://www.w3.org/2000/svg">
<path d="M37.8325 0H13.8325C6.43252 0 0.33252 6.1 0.33252 13.5V37.5C0.33252 45 6.43252 51 13.8325 51H37.8325C45.3325 51 51.3325 45 51.3325 37.5V13.5C51.3325 6.1 45.3325 0 37.8325 0ZM14.6325 14.3V16.8H35.8325C40.6325 16.8 44.5325 20.7 44.5325 25.5V28.5C42.4325 25.9 39.2325 24.3 35.8325 24.3H15.8325C11.0325 24.3 7.13252 20.4 7.13252 15.6C7.13252 10.8 11.0325 6.9 15.8325 6.9H35.7325C40.5325 6.9 44.4325 10.8 44.4325 15.6V18.6C42.3325 16 39.1325 14.4 35.7325 14.4H14.6325V14.3ZM35.8325 44.2H15.8325C11.0325 44.2 7.13252 40.3 7.13252 35.5V32.5C9.23252 35.1 12.4325 36.7 15.8325 36.7H36.9325V34.2H15.8325C11.0325 34.2 7.13252 30.3 7.13252 25.5V22.5C9.23252 25.1 12.4325 26.7 15.8325 26.7H35.7325C40.5325 26.7 44.4325 30.6 44.4325 35.4C44.4325 40.2 40.6325 44.2 35.8325 44.2Z" fill="#0B78FF"/>
<path d="M79.4324 41.5C76.3324 41.5 73.6324 40.8 71.4324 39.3C69.2324 37.8 67.6324 35.8 66.7324 33.3L70.5324 31.1C71.8324 35.1 74.8324 37.2 79.4324 37.2C81.7324 37.2 83.4324 36.7 84.7324 35.8C85.9324 34.9 86.5324 33.6 86.5324 32.1C86.5324 30.5 85.9324 29.3 84.7324 28.5C83.5324 27.7 81.5324 26.9 78.6324 26C77.2324 25.6 76.1324 25.2 75.4324 24.9C74.7324 24.6 73.8324 24.2 72.7324 23.7C71.6324 23.1 70.8324 22.6 70.2324 22C69.7324 21.4 69.2324 20.6 68.7324 19.7C68.3324 18.7 68.1324 17.7 68.1324 16.5C68.1324 13.6 69.1324 11.3 71.2324 9.6C73.2324 7.9 75.7324 7 78.6324 7C81.2324 7 83.5324 7.7 85.5324 9C87.5324 10.3 88.9324 12.1 89.9324 14.3L86.3324 16.3C84.9324 12.9 82.3324 11.1 78.7324 11.1C76.9324 11.1 75.4324 11.5 74.3324 12.4C73.2324 13.3 72.6324 14.5 72.6324 16C72.6324 17.5 73.1324 18.6 74.2324 19.3C75.3324 20.1 77.1324 20.9 79.6324 21.7C80.5324 22 81.2324 22.2 81.6324 22.3C82.0324 22.4 82.6324 22.7 83.4324 23C84.2324 23.3 84.8324 23.6 85.2324 23.8C85.6324 24 86.1324 24.3 86.8324 24.6C87.5324 25 87.9324 25.3 88.3324 25.6C88.6324 25.9 89.0324 26.3 89.4324 26.8C89.8324 27.3 90.1324 27.7 90.3324 28.2C90.5324 28.7 90.7324 29.2 90.8324 29.8C90.9324 30.4 91.0324 31.1 91.0324 31.8C91.0324 34.7 89.9324 37.1 87.8324 38.8C85.6324 40.6 82.9324 41.5 79.4324 41.5Z" fill="white"/>
<path d="M98.2324 30.7998C98.6324 32.8998 99.6324 34.5998 101.132 35.7998C102.632 36.9998 104.532 37.5998 106.832 37.5998C110.032 37.5998 112.232 36.3998 113.732 34.0998L117.232 36.0998C114.932 39.6998 111.432 41.4998 106.732 41.4998C102.932 41.4998 99.8324 40.2998 97.5324 37.8998C95.1324 35.4998 93.9324 32.4998 93.9324 28.8998C93.9324 25.2998 95.1324 22.2998 97.4324 19.8998C99.7324 17.4998 102.732 16.2998 106.432 16.2998C109.932 16.2998 112.832 17.4998 115.032 19.9998C117.232 22.4998 118.332 25.3998 118.332 28.8998C118.332 29.4998 118.332 30.0998 118.232 30.7998H98.2324ZM106.532 20.2998C104.332 20.2998 102.432 20.8998 101.032 22.1998C99.5324 23.4998 98.6324 25.0998 98.3324 27.1998H114.332C113.932 24.8998 113.132 23.1998 111.632 21.9998C110.132 20.8998 108.432 20.2998 106.532 20.2998Z" fill="white"/>
<path d="M124.732 12.6C123.932 12.6 123.232 12.3 122.732 11.8C122.232 11.3 121.932 10.6 121.932 9.8C121.932 9 122.232 8.4 122.732 7.8C123.232 7.2 123.932 7 124.732 7C125.532 7 126.132 7.3 126.732 7.8C127.232 8.4 127.532 9 127.532 9.8C127.532 10.6 127.232 11.2 126.732 11.8C126.132 12.4 125.532 12.6 124.732 12.6ZM122.632 40.9V17H126.832V40.9H122.632Z" fill="white"/>
<path d="M152.332 16.9999H156.432V39.8999C156.432 43.3999 155.232 46.1999 152.832 48.0999C150.432 50.0999 147.532 50.9999 144.232 50.9999C141.532 50.9999 139.232 50.4999 137.332 49.4999C135.432 48.4999 133.932 47.0999 132.932 45.1999L136.532 43.0999C137.832 45.7999 140.432 47.0999 144.332 47.0999C146.832 47.0999 148.732 46.3999 150.132 45.0999C151.532 43.7999 152.232 41.9999 152.232 39.7999V36.3999C150.132 39.5999 147.132 41.1999 143.232 41.1999C139.832 41.1999 136.932 39.9999 134.632 37.5999C132.232 35.1999 131.132 32.1999 131.132 28.7999C131.132 25.2999 132.332 22.3999 134.632 19.9999C137.032 17.5999 139.832 16.3999 143.232 16.3999C147.132 16.3999 150.132 17.9999 152.232 21.0999V16.9999H152.332ZM137.732 34.7999C139.332 36.3999 141.332 37.1999 143.832 37.1999C146.232 37.1999 148.232 36.3999 149.932 34.7999C151.532 33.1999 152.332 31.1999 152.332 28.6999C152.332 26.2999 151.532 24.2999 149.932 22.6999C148.332 21.0999 146.332 20.2999 143.832 20.2999C141.432 20.2999 139.432 21.0999 137.732 22.6999C136.132 24.2999 135.332 26.2999 135.332 28.6999C135.332 31.1999 136.132 33.1999 137.732 34.7999Z" fill="white"/>
<path d="M165.232 30.7998C165.632 32.8998 166.632 34.5998 168.132 35.7998C169.632 36.9998 171.532 37.5998 173.832 37.5998C177.032 37.5998 179.232 36.3998 180.732 34.0998L184.232 36.0998C181.932 39.6998 178.432 41.4998 173.732 41.4998C169.932 41.4998 166.832 40.2998 164.532 37.8998C162.132 35.4998 160.932 32.4998 160.932 28.8998C160.932 25.2998 162.132 22.2998 164.432 19.8998C166.732 17.4998 169.732 16.2998 173.432 16.2998C176.932 16.2998 179.832 17.4998 182.032 19.9998C184.232 22.4998 185.332 25.3998 185.332 28.8998C185.332 29.4998 185.332 30.0998 185.232 30.7998H165.232ZM173.432 20.2998C171.232 20.2998 169.332 20.8998 167.932 22.1998C166.432 23.4998 165.532 25.0998 165.232 27.1998H181.132C180.732 24.8998 179.932 23.1998 178.432 21.9998C177.032 20.8998 175.332 20.2998 173.432 20.2998Z" fill="white"/>
<path d="M193.832 21.0001C195.232 18.0001 197.732 16.6001 201.232 16.6001V20.9001C199.232 20.8001 197.432 21.3001 195.932 22.5001C194.432 23.7001 193.732 25.6001 193.732 28.2001V40.9001H189.532V17.0001H193.732V21.0001H193.832Z" fill="white"/>
<path d="M217.732 7.3999H222.132V40.7999H217.732V7.3999Z" fill="white"/>
<path d="M249.732 7.3999V11.5999H239.832V40.7999H235.432V11.5999H225.632V7.3999H249.732Z" fill="white"/>
</svg>