<svg width="32" height="33" viewBox="0 0 32 33" fill="none" xmlns="http://www.w3.org/2000/svg">
<g clip-path="url(#clip0)">
<path d="M28.4444 4.79942H3.55556C2.61256 4.79942 1.70819 5.17402 1.0414 5.84081C0.374602 6.50761 0 7.41198 0 8.35497L0 16.355H32V8.35497C32 7.41198 31.6254 6.50761 30.9586 5.84081C30.2918 5.17402 29.3874 4.79942 28.4444 4.79942Z" fill="#005BBB"/>
<path d="M32 24.355C32 25.298 31.6254 26.2023 30.9586 26.8691C30.2918 27.5359 29.3874 27.9105 28.4444 27.9105H3.55556C2.61256 27.9105 1.70819 27.5359 1.0414 26.8691C0.374602 26.2023 0 25.298 0 24.355V16.355H32V24.355Z" fill="#FFD500"/>
</g>
<defs>
<clipPath id="clip0">
<rect width="32" height="32" fill="white" transform="translate(0 0.35498)"/>
</clipPath>
</defs>
</svg>